<?xml version="1.0" encoding="UTF-8"?>
<svg id="Layer_2" data-name="Layer 2" xmlns="http://www.w3.org/2000/svg" viewBox="0 0 359.69 331.74">
  <defs>
    <style>
      .cls-1 {
        fill: #231f20;
      }
    </style>
  </defs>
  <path class="cls-1" d="M247.02,234.5v-2.87c0-.62-.5-1.12-1.12-1.12H101.32c-2.59,0-4.69-2.1-4.69-4.69v-122.87c0-11.9-4.72-23.31-13.13-31.72l-27.01-27.03c-.74-.74-2.01-.22-2.01.83v213.97c0,7.26,5.89,13.15,13.15,13.15h141.75c20.79,0,37.64-16.85,37.64-37.64Z"/>
  <path class="cls-1" d="M298.07,272.14h3.82c.63,0,1.15-.51,1.14-1.15l-.75-236.79c0-.63-.51-1.14-1.14-1.14h-2.92c-20.63,0-37.36,16.73-37.36,37.36v46.36c0,5.81-4.72,10.52-10.53,10.5l-80.39-.28c-12.26-.04-24.03,4.86-32.63,13.6l-25.62,26.01c-1.06,1.08-.3,2.9,1.21,2.91l137.15.34c5.77.01,10.45,4.69,10.47,10.46l.2,54.61c.08,20.58,16.78,37.22,37.36,37.22Z"/>
  <path class="cls-1" d="M68.01,33.05h178.16c.46,0,.84.38.84.84v2.59c0,21.4-17.35,38.76-38.76,38.76h-82.66c-12.31,0-24.08-4.99-32.65-13.83l-25.71-26.55c-.65-.68-.18-1.81.77-1.81Z"/>
</svg>